# xmcd CD database file
#
# Track frame offsets:
#	150
#	32285
#	60263
#	85871
#	103464
#	123476
#	150163
#	169047
#	191327
#	206266
#	246464
#
# Disc length: 3907 seconds
#
# Revision: 0
# Processed by: cddbd v1.5.2PL0 Copyright (c) Steve Scherf et al.
# Submitted via: CDex 1.51
#
DISCID=810f410b
DTITLE=Seckund Naychur - Yahi Echo
DYEAR=2003
DGENRE=New Age
TTITLE0=Yahi Echo
TTITLE1=Chaoti
TTITLE2=Yidaki
TTITLE3=Canyon Winds
TTITLE4=Morning Sky
TTITLE5=Rising Moon
TTITLE6=Roots
TTITLE7=Spirit Tranz
TTITLE8=Warmth
TTITLE9=Lizard Dance
TTITLE10=Native Zen
EXTD=YEAR: 2003
EXTT0=
EXTT1=
EXTT2=
EXTT3=
EXTT4=
EXTT5=
EXTT6=
EXTT7=
EXTT8=
EXTT9=
EXTT10=
PLAYORDER=
